<?xml version="1.0" encoding="utf-8"?>
<!-- Generator: Adobe Illustrator 28.0.0, SVG Export Plug-In . SVG Version: 6.00 Build 0)  -->
<svg version="1.1" id="Layer_1" xmlns="http://www.w3.org/2000/svg" xmlns:xlink="http://www.w3.org/1999/xlink" x="0px" y="0px"
	 viewBox="0 0 64 64" style="enable-background:new 0 0 64 64;" xml:space="preserve">
<style type="text/css">
	.st0{fill:#C2A970;}
	.st1{fill:#2A241F;}
</style>
<g>
	<circle class="st0" cx="32" cy="32" r="32"/>
	<g>
		<path class="st1" d="M14.72,13.86c1.85-3.16,4.02-5.28,6.5-6.35c1.46-0.68,3.05-0.97,4.78-0.88c1.73,0.1,2.76,0.68,3.1,1.75
			c0.24,0.78,0.12,1.63-0.36,2.56c1.02,0.24,1.68,0.76,1.97,1.53c0.29,0.78,0.19,1.53-0.29,2.26c0.44,0.29,0.71,0.71,0.8,1.24
			c0.24,1.51-0.12,2.75-1.1,3.72c-0.2,0.24-0.5,0.35-0.91,0.33c-0.41-0.02-0.74-0.23-0.99-0.62c1.56-1.75,2.34-2.85,2.34-3.29
			c0-0.39-0.15-0.68-0.44-0.88c-0.44,0.68-0.95,1.14-1.53,1.39c-1.02,0.49-1.66,0.34-1.9-0.44c-0.19-0.73,0.19-1.31,1.17-1.75
			c0.73-0.29,1.44-0.27,2.12,0.07c0.44-0.68,0.51-1.31,0.22-1.9c-0.24-0.54-0.83-0.92-1.75-1.17c-0.73,1.17-1.49,1.92-2.26,2.26
			c-1.36,0.68-2.36,0.66-2.99-0.07c-0.58-0.63-0.41-1.29,0.51-1.97c0.34-0.24,0.75-0.44,1.24-0.58c1.02-0.34,2.09-0.44,3.21-0.29
			c0.58-0.88,0.73-1.61,0.44-2.19c-0.39-0.92-1.4-1.39-3.03-1.39c-1.63,0-3.01,0.29-4.13,0.88c-2.92,1.31-4.19,2.97-3.8,4.97
			c0.19,0.83,0.88,1.7,2.04,2.63l16.94,14.02l3.29-3.94l-4.89-4.09c-0.83-0.68-1.34-1.35-1.53-2.01c-0.2-0.66-0.15-1.28,0.15-1.86
			c0.29-0.58,0.83-1.27,1.61-2.04c1.07-1.12,2.28-2.13,3.61-3.03c1.34-0.9,2.4-1.38,3.18-1.42c0.39,1.02,1.41,2.31,3.07,3.87
			l2.85,2.7c1.95,1.85,3.05,3.54,3.32,5.08c0.27,1.53-0.09,3.71-1.06,6.54c-0.24,0.73-0.73,1.95-1.46,3.65l-7.38-6.21l-3.29,4.02
			l6.86,5.62c1.95,1.7,3.33,3.66,4.16,5.88c0.83,2.22,1.13,4.28,0.91,6.21c-0.22,1.92-0.65,3.66-1.28,5.22
			c-0.63,1.56-1.36,2.73-2.19,3.51h-0.95c0.05-1.07-0.3-2.36-1.06-3.87c-0.76-1.51-1.96-2.97-3.61-4.38L21.8,32.7l-1.31,1.75
			c-1.41,1.85-1.39,3.46,0.07,4.82l7.67,6.94c1.36,1.22,2.25,2.52,2.67,3.91c0.41,1.39,0.44,2.59,0.07,3.61
			c-0.36,1.02-0.96,1.92-1.79,2.7H13.26v-1.24c1.56-0.19,2.47-0.6,2.74-1.2c0.27-0.61,0.15-1.45-0.37-2.52
			c-0.51-1.07-1.06-2.24-1.64-3.51c-0.58-1.27-0.83-2.85-0.73-4.75c0.1-1.9,0.78-3.77,2.05-5.62c0.58-0.92,1.87-2.48,3.87-4.67
			l1.31-1.31l-3.8-3.29c-4.63-3.94-5.28-8.74-1.97-14.39l0.07-0.07H14.72z M25.16,11.67c-1.12,0.39-1.66,0.83-1.61,1.31
			c0.1,0.54,0.63,0.68,1.61,0.44c0.19-0.05,0.41-0.12,0.66-0.22c0.73-0.34,1.39-0.95,1.97-1.83C26.82,11.28,25.94,11.38,25.16,11.67
			z M28.08,14.96c-0.68,0.29-0.96,0.65-0.84,1.06c0.12,0.41,0.52,0.45,1.2,0.11c0.54-0.34,0.95-0.71,1.24-1.1
			C29.06,14.74,28.52,14.71,28.08,14.96z"/>
	</g>
</g>
</svg>
